<mxfile host="Electron" agent="Mozilla/5.0 (Windows NT 10.0; Win64; x64) AppleWebKit/537.36 (KHTML, like Gecko) draw.io/26.0.16 Chrome/132.0.6834.196 Electron/34.2.0 Safari/537.36" version="26.0.16">
  <diagram name="Page-1" id="0OjoNg8llGZRULN9vtRU">
    <mxGraphModel dx="1313" dy="956" grid="1" gridSize="10" guides="1" tooltips="1" connect="1" arrows="1" fold="1" page="1" pageScale="1" pageWidth="827" pageHeight="1169" math="0" shadow="0">
      <root>
        <mxCell id="0" />
        <mxCell id="1" parent="0" />
        <mxCell id="rGZQ2inlEMERkXzWNG8n-16" value="" style="group" vertex="1" connectable="0" parent="1">
          <mxGeometry y="120" width="1000" height="600" as="geometry" />
        </mxCell>
        <mxCell id="rGZQ2inlEMERkXzWNG8n-15" value="" style="rounded=0;whiteSpace=wrap;html=1;" vertex="1" parent="rGZQ2inlEMERkXzWNG8n-16">
          <mxGeometry width="1000" height="600" as="geometry" />
        </mxCell>
        <mxCell id="vVk3-XnJ2zW5tjD1l8Xi-14" value="" style="group" parent="rGZQ2inlEMERkXzWNG8n-16" vertex="1" connectable="0">
          <mxGeometry x="40" y="60" width="160" height="460" as="geometry" />
        </mxCell>
        <mxCell id="vVk3-XnJ2zW5tjD1l8Xi-13" value="" style="group" parent="vVk3-XnJ2zW5tjD1l8Xi-14" vertex="1" connectable="0">
          <mxGeometry width="160" height="460" as="geometry" />
        </mxCell>
        <mxCell id="vVk3-XnJ2zW5tjD1l8Xi-1" value="" style="rounded=0;whiteSpace=wrap;html=1;dashed=1;fillColor=none;" parent="vVk3-XnJ2zW5tjD1l8Xi-13" vertex="1">
          <mxGeometry y="20" width="160" height="440" as="geometry" />
        </mxCell>
        <mxCell id="vVk3-XnJ2zW5tjD1l8Xi-2" value="&lt;b&gt;&lt;font style=&quot;font-size: 15px;&quot;&gt;Source&lt;/font&gt;&lt;/b&gt;" style="text;html=1;align=center;verticalAlign=middle;whiteSpace=wrap;rounded=0;fillColor=default;" parent="vVk3-XnJ2zW5tjD1l8Xi-13" vertex="1">
          <mxGeometry x="50" width="60" height="40" as="geometry" />
        </mxCell>
        <mxCell id="vVk3-XnJ2zW5tjD1l8Xi-12" value="" style="group" parent="vVk3-XnJ2zW5tjD1l8Xi-13" vertex="1" connectable="0">
          <mxGeometry x="35" y="270" width="90" height="80" as="geometry" />
        </mxCell>
        <mxCell id="vVk3-XnJ2zW5tjD1l8Xi-3" value="" style="image;aspect=fixed;html=1;points=[];align=center;fontSize=12;image=img/lib/azure2/general/Folder_Blank.svg;" parent="vVk3-XnJ2zW5tjD1l8Xi-12" vertex="1">
          <mxGeometry x="15.5" width="69" height="56.00000000000001" as="geometry" />
        </mxCell>
        <mxCell id="vVk3-XnJ2zW5tjD1l8Xi-6" value="" style="verticalLabelPosition=bottom;html=1;verticalAlign=top;align=center;strokeColor=none;fillColor=#00BEF2;shape=mxgraph.azure.file_2;pointerEvents=1;" parent="vVk3-XnJ2zW5tjD1l8Xi-12" vertex="1">
          <mxGeometry x="50" y="30" width="40" height="40" as="geometry" />
        </mxCell>
        <mxCell id="vVk3-XnJ2zW5tjD1l8Xi-10" value="ERP" style="text;html=1;align=center;verticalAlign=middle;whiteSpace=wrap;rounded=0;fontSize=14;" parent="vVk3-XnJ2zW5tjD1l8Xi-12" vertex="1">
          <mxGeometry y="50" width="60" height="30" as="geometry" />
        </mxCell>
        <mxCell id="vVk3-XnJ2zW5tjD1l8Xi-11" value="" style="group" parent="vVk3-XnJ2zW5tjD1l8Xi-14" vertex="1" connectable="0">
          <mxGeometry x="35" y="100" width="90" height="80" as="geometry" />
        </mxCell>
        <mxCell id="vVk3-XnJ2zW5tjD1l8Xi-4" value="" style="image;aspect=fixed;html=1;points=[];align=center;fontSize=12;image=img/lib/azure2/general/Folder_Blank.svg;" parent="vVk3-XnJ2zW5tjD1l8Xi-11" vertex="1">
          <mxGeometry x="5.5" width="69" height="56.00000000000001" as="geometry" />
        </mxCell>
        <mxCell id="vVk3-XnJ2zW5tjD1l8Xi-5" value="" style="verticalLabelPosition=bottom;html=1;verticalAlign=top;align=center;strokeColor=none;fillColor=#00BEF2;shape=mxgraph.azure.file_2;pointerEvents=1;" parent="vVk3-XnJ2zW5tjD1l8Xi-11" vertex="1">
          <mxGeometry x="50" y="40" width="40" height="40" as="geometry" />
        </mxCell>
        <mxCell id="vVk3-XnJ2zW5tjD1l8Xi-8" value="CRM" style="text;html=1;align=center;verticalAlign=middle;whiteSpace=wrap;rounded=0;fontSize=14;" parent="vVk3-XnJ2zW5tjD1l8Xi-11" vertex="1">
          <mxGeometry y="50" width="60" height="30" as="geometry" />
        </mxCell>
        <mxCell id="vVk3-XnJ2zW5tjD1l8Xi-15" value="" style="rounded=0;whiteSpace=wrap;html=1;fillColor=none;dashed=1;" parent="rGZQ2inlEMERkXzWNG8n-16" vertex="1">
          <mxGeometry x="280" y="80" width="680" height="440" as="geometry" />
        </mxCell>
        <mxCell id="vVk3-XnJ2zW5tjD1l8Xi-16" value="&lt;b&gt;&lt;font style=&quot;font-size: 15px;&quot;&gt;Data Warehouse&lt;/font&gt;&lt;/b&gt;" style="text;html=1;align=center;verticalAlign=middle;whiteSpace=wrap;rounded=0;fillColor=default;" parent="rGZQ2inlEMERkXzWNG8n-16" vertex="1">
          <mxGeometry x="540" y="60" width="160" height="40" as="geometry" />
        </mxCell>
        <mxCell id="vVk3-XnJ2zW5tjD1l8Xi-18" value="" style="rounded=0;whiteSpace=wrap;html=1;fillColor=none;fontColor=#333333;strokeColor=#666666;" parent="rGZQ2inlEMERkXzWNG8n-16" vertex="1">
          <mxGeometry x="550" y="150" width="140" height="330" as="geometry" />
        </mxCell>
        <mxCell id="vVk3-XnJ2zW5tjD1l8Xi-19" value="" style="rounded=0;whiteSpace=wrap;html=1;fillColor=none;strokeColor=#d6b656;" parent="rGZQ2inlEMERkXzWNG8n-16" vertex="1">
          <mxGeometry x="790" y="150" width="140" height="330" as="geometry" />
        </mxCell>
        <mxCell id="vVk3-XnJ2zW5tjD1l8Xi-21" value="&lt;font style=&quot;font-size: 14px;&quot;&gt;Silver&lt;/font&gt;" style="rounded=0;whiteSpace=wrap;html=1;fillColor=#f5f5f5;fontColor=#333333;strokeColor=#666666;" parent="rGZQ2inlEMERkXzWNG8n-16" vertex="1">
          <mxGeometry x="550" y="110" width="140" height="30" as="geometry" />
        </mxCell>
        <mxCell id="vVk3-XnJ2zW5tjD1l8Xi-22" value="&lt;font style=&quot;font-size: 14px;&quot;&gt;Gold&lt;/font&gt;" style="rounded=0;whiteSpace=wrap;html=1;fillColor=#fff2cc;strokeColor=#d6b656;" parent="rGZQ2inlEMERkXzWNG8n-16" vertex="1">
          <mxGeometry x="790" y="110" width="140" height="30" as="geometry" />
        </mxCell>
        <mxCell id="vVk3-XnJ2zW5tjD1l8Xi-28" style="edgeStyle=orthogonalEdgeStyle;rounded=0;orthogonalLoop=1;jettySize=auto;html=1;" parent="rGZQ2inlEMERkXzWNG8n-16" source="vVk3-XnJ2zW5tjD1l8Xi-4" target="vVk3-XnJ2zW5tjD1l8Xi-25" edge="1">
          <mxGeometry relative="1" as="geometry" />
        </mxCell>
        <mxCell id="vVk3-XnJ2zW5tjD1l8Xi-29" style="edgeStyle=orthogonalEdgeStyle;rounded=0;orthogonalLoop=1;jettySize=auto;html=1;entryX=0;entryY=0.5;entryDx=0;entryDy=0;" parent="rGZQ2inlEMERkXzWNG8n-16" source="vVk3-XnJ2zW5tjD1l8Xi-4" target="vVk3-XnJ2zW5tjD1l8Xi-26" edge="1">
          <mxGeometry relative="1" as="geometry" />
        </mxCell>
        <mxCell id="vVk3-XnJ2zW5tjD1l8Xi-30" style="edgeStyle=orthogonalEdgeStyle;rounded=0;orthogonalLoop=1;jettySize=auto;html=1;" parent="rGZQ2inlEMERkXzWNG8n-16" source="vVk3-XnJ2zW5tjD1l8Xi-4" target="vVk3-XnJ2zW5tjD1l8Xi-24" edge="1">
          <mxGeometry relative="1" as="geometry" />
        </mxCell>
        <mxCell id="vVk3-XnJ2zW5tjD1l8Xi-34" style="edgeStyle=orthogonalEdgeStyle;rounded=0;orthogonalLoop=1;jettySize=auto;html=1;" parent="rGZQ2inlEMERkXzWNG8n-16" source="vVk3-XnJ2zW5tjD1l8Xi-3" target="vVk3-XnJ2zW5tjD1l8Xi-31" edge="1">
          <mxGeometry relative="1" as="geometry" />
        </mxCell>
        <mxCell id="vVk3-XnJ2zW5tjD1l8Xi-35" style="edgeStyle=orthogonalEdgeStyle;rounded=0;orthogonalLoop=1;jettySize=auto;html=1;" parent="rGZQ2inlEMERkXzWNG8n-16" source="vVk3-XnJ2zW5tjD1l8Xi-3" target="vVk3-XnJ2zW5tjD1l8Xi-32" edge="1">
          <mxGeometry relative="1" as="geometry" />
        </mxCell>
        <mxCell id="vVk3-XnJ2zW5tjD1l8Xi-36" style="edgeStyle=orthogonalEdgeStyle;rounded=0;orthogonalLoop=1;jettySize=auto;html=1;entryX=0;entryY=0.5;entryDx=0;entryDy=0;" parent="rGZQ2inlEMERkXzWNG8n-16" source="vVk3-XnJ2zW5tjD1l8Xi-3" target="vVk3-XnJ2zW5tjD1l8Xi-33" edge="1">
          <mxGeometry relative="1" as="geometry" />
        </mxCell>
        <mxCell id="vVk3-XnJ2zW5tjD1l8Xi-37" value="" style="group" parent="rGZQ2inlEMERkXzWNG8n-16" vertex="1" connectable="0">
          <mxGeometry x="330" y="110" width="140" height="370" as="geometry" />
        </mxCell>
        <mxCell id="vVk3-XnJ2zW5tjD1l8Xi-17" value="" style="rounded=0;whiteSpace=wrap;html=1;fillColor=none;strokeColor=#d79b00;" parent="vVk3-XnJ2zW5tjD1l8Xi-37" vertex="1">
          <mxGeometry y="40" width="140" height="330" as="geometry" />
        </mxCell>
        <mxCell id="vVk3-XnJ2zW5tjD1l8Xi-20" value="&lt;font style=&quot;font-size: 14px;&quot;&gt;Bronze&lt;/font&gt;" style="rounded=0;whiteSpace=wrap;html=1;fillColor=#ffe6cc;strokeColor=#d79b00;" parent="vVk3-XnJ2zW5tjD1l8Xi-37" vertex="1">
          <mxGeometry width="140" height="30" as="geometry" />
        </mxCell>
        <mxCell id="vVk3-XnJ2zW5tjD1l8Xi-24" value="crm_cust_info" style="rounded=1;whiteSpace=wrap;html=1;fillColor=#ffe6cc;strokeColor=#d79b00;" parent="vVk3-XnJ2zW5tjD1l8Xi-37" vertex="1">
          <mxGeometry x="10" y="50" width="120" height="30" as="geometry" />
        </mxCell>
        <mxCell id="vVk3-XnJ2zW5tjD1l8Xi-25" value="crm_prd_info" style="rounded=1;whiteSpace=wrap;html=1;fillColor=#ffe6cc;strokeColor=#d79b00;" parent="vVk3-XnJ2zW5tjD1l8Xi-37" vertex="1">
          <mxGeometry x="10" y="90" width="120" height="30" as="geometry" />
        </mxCell>
        <mxCell id="vVk3-XnJ2zW5tjD1l8Xi-26" value="crm_sales_details" style="rounded=1;whiteSpace=wrap;html=1;fillColor=#ffe6cc;strokeColor=#d79b00;" parent="vVk3-XnJ2zW5tjD1l8Xi-37" vertex="1">
          <mxGeometry x="10" y="130" width="120" height="30" as="geometry" />
        </mxCell>
        <mxCell id="vVk3-XnJ2zW5tjD1l8Xi-31" value="erp_cust_az12" style="rounded=1;whiteSpace=wrap;html=1;fillColor=#ffe6cc;strokeColor=#d79b00;" parent="vVk3-XnJ2zW5tjD1l8Xi-37" vertex="1">
          <mxGeometry x="10" y="200" width="120" height="30" as="geometry" />
        </mxCell>
        <mxCell id="vVk3-XnJ2zW5tjD1l8Xi-32" value="erp_loc_a101" style="rounded=1;whiteSpace=wrap;html=1;fillColor=#ffe6cc;strokeColor=#d79b00;" parent="vVk3-XnJ2zW5tjD1l8Xi-37" vertex="1">
          <mxGeometry x="10" y="240" width="120" height="30" as="geometry" />
        </mxCell>
        <mxCell id="vVk3-XnJ2zW5tjD1l8Xi-33" value="erp_px_cat_g1v2" style="rounded=1;whiteSpace=wrap;html=1;fillColor=#ffe6cc;strokeColor=#d79b00;" parent="vVk3-XnJ2zW5tjD1l8Xi-37" vertex="1">
          <mxGeometry x="10" y="280" width="120" height="30" as="geometry" />
        </mxCell>
        <mxCell id="rGZQ2inlEMERkXzWNG8n-3" style="edgeStyle=orthogonalEdgeStyle;rounded=0;orthogonalLoop=1;jettySize=auto;html=1;entryX=0;entryY=0.5;entryDx=0;entryDy=0;strokeColor=#FF3333;" edge="1" parent="rGZQ2inlEMERkXzWNG8n-16" source="tl43eguEImNmGYMZbmDn-1" target="rGZQ2inlEMERkXzWNG8n-2">
          <mxGeometry relative="1" as="geometry">
            <Array as="points">
              <mxPoint x="730" y="175" />
              <mxPoint x="730" y="215" />
            </Array>
          </mxGeometry>
        </mxCell>
        <mxCell id="tl43eguEImNmGYMZbmDn-1" value="crm_cust_info" style="rounded=1;whiteSpace=wrap;html=1;fillColor=#f5f5f5;strokeColor=#666666;fontColor=#333333;" parent="rGZQ2inlEMERkXzWNG8n-16" vertex="1">
          <mxGeometry x="560" y="160" width="120" height="30" as="geometry" />
        </mxCell>
        <mxCell id="tl43eguEImNmGYMZbmDn-2" value="crm_prd_info" style="rounded=1;whiteSpace=wrap;html=1;fillColor=#f5f5f5;strokeColor=#666666;fontColor=#333333;" parent="rGZQ2inlEMERkXzWNG8n-16" vertex="1">
          <mxGeometry x="560" y="200" width="120" height="30" as="geometry" />
        </mxCell>
        <mxCell id="rGZQ2inlEMERkXzWNG8n-7" style="edgeStyle=orthogonalEdgeStyle;rounded=0;orthogonalLoop=1;jettySize=auto;html=1;entryX=0;entryY=0.5;entryDx=0;entryDy=0;exitX=1;exitY=0.5;exitDx=0;exitDy=0;strokeColor=#FFFF33;" edge="1" parent="rGZQ2inlEMERkXzWNG8n-16" source="tl43eguEImNmGYMZbmDn-2" target="rGZQ2inlEMERkXzWNG8n-1">
          <mxGeometry relative="1" as="geometry">
            <Array as="points">
              <mxPoint x="720" y="215" />
              <mxPoint x="720" y="305" />
            </Array>
          </mxGeometry>
        </mxCell>
        <mxCell id="rGZQ2inlEMERkXzWNG8n-11" style="edgeStyle=orthogonalEdgeStyle;rounded=0;orthogonalLoop=1;jettySize=auto;html=1;entryX=0;entryY=0.5;entryDx=0;entryDy=0;strokeColor=#33FF33;" edge="1" parent="rGZQ2inlEMERkXzWNG8n-16" source="tl43eguEImNmGYMZbmDn-3" target="rGZQ2inlEMERkXzWNG8n-10">
          <mxGeometry relative="1" as="geometry">
            <Array as="points">
              <mxPoint x="710" y="255" />
              <mxPoint x="710" y="395" />
            </Array>
          </mxGeometry>
        </mxCell>
        <mxCell id="tl43eguEImNmGYMZbmDn-3" value="crm_sales_details" style="rounded=1;whiteSpace=wrap;html=1;fillColor=#f5f5f5;strokeColor=#666666;fontColor=#333333;" parent="rGZQ2inlEMERkXzWNG8n-16" vertex="1">
          <mxGeometry x="560" y="240" width="120" height="30" as="geometry" />
        </mxCell>
        <mxCell id="rGZQ2inlEMERkXzWNG8n-4" style="edgeStyle=orthogonalEdgeStyle;rounded=0;orthogonalLoop=1;jettySize=auto;html=1;entryX=0;entryY=0.5;entryDx=0;entryDy=0;strokeColor=#FF3333;" edge="1" parent="rGZQ2inlEMERkXzWNG8n-16" source="tl43eguEImNmGYMZbmDn-4" target="rGZQ2inlEMERkXzWNG8n-2">
          <mxGeometry relative="1" as="geometry">
            <Array as="points">
              <mxPoint x="730" y="325" />
              <mxPoint x="730" y="215" />
            </Array>
          </mxGeometry>
        </mxCell>
        <mxCell id="tl43eguEImNmGYMZbmDn-4" value="erp_cust_az12" style="rounded=1;whiteSpace=wrap;html=1;fillColor=#f5f5f5;strokeColor=#666666;fontColor=#333333;" parent="rGZQ2inlEMERkXzWNG8n-16" vertex="1">
          <mxGeometry x="560" y="310" width="120" height="30" as="geometry" />
        </mxCell>
        <mxCell id="rGZQ2inlEMERkXzWNG8n-6" style="edgeStyle=orthogonalEdgeStyle;rounded=0;orthogonalLoop=1;jettySize=auto;html=1;entryX=0;entryY=0.5;entryDx=0;entryDy=0;strokeColor=#FF3333;" edge="1" parent="rGZQ2inlEMERkXzWNG8n-16" source="tl43eguEImNmGYMZbmDn-5" target="rGZQ2inlEMERkXzWNG8n-2">
          <mxGeometry relative="1" as="geometry">
            <Array as="points">
              <mxPoint x="730" y="365" />
              <mxPoint x="730" y="215" />
            </Array>
          </mxGeometry>
        </mxCell>
        <mxCell id="tl43eguEImNmGYMZbmDn-5" value="erp_loc_a101" style="rounded=1;whiteSpace=wrap;html=1;fillColor=#f5f5f5;strokeColor=#666666;fontColor=#333333;" parent="rGZQ2inlEMERkXzWNG8n-16" vertex="1">
          <mxGeometry x="560" y="350" width="120" height="30" as="geometry" />
        </mxCell>
        <mxCell id="rGZQ2inlEMERkXzWNG8n-9" style="edgeStyle=orthogonalEdgeStyle;rounded=0;orthogonalLoop=1;jettySize=auto;html=1;entryX=0;entryY=0.5;entryDx=0;entryDy=0;strokeColor=#FFFF33;" edge="1" parent="rGZQ2inlEMERkXzWNG8n-16" source="tl43eguEImNmGYMZbmDn-6" target="rGZQ2inlEMERkXzWNG8n-1">
          <mxGeometry relative="1" as="geometry">
            <Array as="points">
              <mxPoint x="720" y="405" />
              <mxPoint x="720" y="305" />
            </Array>
          </mxGeometry>
        </mxCell>
        <mxCell id="tl43eguEImNmGYMZbmDn-6" value="erp_px_cat_g1v2" style="rounded=1;whiteSpace=wrap;html=1;fillColor=#f5f5f5;strokeColor=#666666;fontColor=#333333;" parent="rGZQ2inlEMERkXzWNG8n-16" vertex="1">
          <mxGeometry x="560" y="390" width="120" height="30" as="geometry" />
        </mxCell>
        <mxCell id="tl43eguEImNmGYMZbmDn-7" style="edgeStyle=orthogonalEdgeStyle;rounded=0;orthogonalLoop=1;jettySize=auto;html=1;" parent="rGZQ2inlEMERkXzWNG8n-16" source="vVk3-XnJ2zW5tjD1l8Xi-24" target="tl43eguEImNmGYMZbmDn-1" edge="1">
          <mxGeometry relative="1" as="geometry" />
        </mxCell>
        <mxCell id="tl43eguEImNmGYMZbmDn-8" style="edgeStyle=orthogonalEdgeStyle;rounded=0;orthogonalLoop=1;jettySize=auto;html=1;entryX=0;entryY=0.5;entryDx=0;entryDy=0;" parent="rGZQ2inlEMERkXzWNG8n-16" source="vVk3-XnJ2zW5tjD1l8Xi-25" target="tl43eguEImNmGYMZbmDn-2" edge="1">
          <mxGeometry relative="1" as="geometry" />
        </mxCell>
        <mxCell id="tl43eguEImNmGYMZbmDn-9" style="edgeStyle=orthogonalEdgeStyle;rounded=0;orthogonalLoop=1;jettySize=auto;html=1;entryX=0;entryY=0.5;entryDx=0;entryDy=0;" parent="rGZQ2inlEMERkXzWNG8n-16" source="vVk3-XnJ2zW5tjD1l8Xi-26" target="tl43eguEImNmGYMZbmDn-3" edge="1">
          <mxGeometry relative="1" as="geometry" />
        </mxCell>
        <mxCell id="tl43eguEImNmGYMZbmDn-10" style="edgeStyle=orthogonalEdgeStyle;rounded=0;orthogonalLoop=1;jettySize=auto;html=1;" parent="rGZQ2inlEMERkXzWNG8n-16" source="vVk3-XnJ2zW5tjD1l8Xi-31" target="tl43eguEImNmGYMZbmDn-4" edge="1">
          <mxGeometry relative="1" as="geometry" />
        </mxCell>
        <mxCell id="tl43eguEImNmGYMZbmDn-12" style="edgeStyle=orthogonalEdgeStyle;rounded=0;orthogonalLoop=1;jettySize=auto;html=1;" parent="rGZQ2inlEMERkXzWNG8n-16" source="vVk3-XnJ2zW5tjD1l8Xi-32" target="tl43eguEImNmGYMZbmDn-5" edge="1">
          <mxGeometry relative="1" as="geometry" />
        </mxCell>
        <mxCell id="tl43eguEImNmGYMZbmDn-13" value="" style="edgeStyle=orthogonalEdgeStyle;rounded=0;orthogonalLoop=1;jettySize=auto;html=1;" parent="rGZQ2inlEMERkXzWNG8n-16" source="vVk3-XnJ2zW5tjD1l8Xi-33" target="tl43eguEImNmGYMZbmDn-6" edge="1">
          <mxGeometry relative="1" as="geometry" />
        </mxCell>
        <mxCell id="rGZQ2inlEMERkXzWNG8n-1" value="dim_products" style="rounded=1;whiteSpace=wrap;html=1;fillColor=#fff2cc;strokeColor=#d6b656;" vertex="1" parent="rGZQ2inlEMERkXzWNG8n-16">
          <mxGeometry x="800" y="290" width="120" height="30" as="geometry" />
        </mxCell>
        <mxCell id="rGZQ2inlEMERkXzWNG8n-2" value="dim_customers" style="rounded=1;whiteSpace=wrap;html=1;fillColor=#fff2cc;strokeColor=#d6b656;" vertex="1" parent="rGZQ2inlEMERkXzWNG8n-16">
          <mxGeometry x="800" y="200" width="120" height="30" as="geometry" />
        </mxCell>
        <mxCell id="rGZQ2inlEMERkXzWNG8n-10" value="fact_sales" style="rounded=1;whiteSpace=wrap;html=1;fillColor=#fff2cc;strokeColor=#d6b656;" vertex="1" parent="rGZQ2inlEMERkXzWNG8n-16">
          <mxGeometry x="800" y="380" width="120" height="30" as="geometry" />
        </mxCell>
      </root>
    </mxGraphModel>
  </diagram>
</mxfile>
